<svg xmlns="http://www.w3.org/2000/svg" width="2279.053" height="1624.262" viewBox="0 0 2279.053 1624.262">
  <g id="Group_1999" data-name="Group 1999" transform="translate(-19514.127 -21456.619)">
    <g id="g396" transform="translate(19716.258 21965.934)">
      <path id="path398" d="M0,124.289c208.768,0,564.607-148.133,914.608-152.915,436.536-5.979,863.976,131.868,985.657,141.042-47.5,23.754-89.071,35.634-148.452,59.388-213.784,71.254-592.788,164.477-803.469,228.3C645.482,316.954,342.123,199.255,0,132.209" transform="translate(0 28.815)" fill="#805962"/>
    </g>
    <g id="g400" transform="translate(19707.547 21957.395)">
      <path id="path402" d="M7.071,138.371c145.193-1.233,289.862-47.536,430.047-80.485,191.149-44.929,381.838-77.063,578.818-71.58,189.307,5.264,377.219,35.315,562.418,73.4,108.348,22.28,218.445,57.5,328.982,66.791q-2.221-8.214-4.449-16.436c-134.248,65.381-283.869,102.106-427.164,141.956-146.44,40.714-293.546,79.047-439.76,120.582-24.129,6.858-65.183,27.856-90.006,21.005-43.5-12.008-86.776-24.8-129.976-37.809-87.924-26.5-175.358-54.549-263-81.951C373.883,217.858,193.623,165.476,9.416,128.97c-11.108-2.2-15.841,14.8-4.69,17.009,188.386,37.327,372.515,91.395,555.666,148.658C647.934,322,735.3,349.9,823.129,376.369q64.747,19.51,129.941,37.5c7.941,2.2,20.651-4.8,28.174-7.028,16.825-5.009,33.693-9.868,50.561-14.707,149.054-42.74,299.185-81.675,448.6-123.111,144.86-40.175,295.7-77.651,431.379-143.727,8.586-4.18,3.5-15.763-4.449-16.436-112.315-9.436-224.687-45.673-334.8-68.321C1393.474,3.712,1212.172-23.64,1029.332-30.88,838.679-38.432,653.282-9.521,467.921,32.659c-150.365,34.21-305.37,86.755-460.85,88.079-11.363.092-11.377,17.732,0,17.633" transform="translate(1.639 32.08)"/>
    </g>
    <g id="g404" transform="translate(20063.674 21467.846)">
      <path id="path406" d="M736.927,167.243c-12.157-6.071-31.355-186.063-80.91-204.4s-98.189,124.479-121.185,147.5c-5.49,5.49-44.22,8.267-83.312,8.317-39.1-.05-77.821-2.827-83.312-8.317-23-23.017-71.63-165.83-121.192-147.5s-68.746,198.326-80.9,204.4C20.8,239.9-385.953,759.068-26.147,1138.88c0,0,100.654,131.414,321.777,144.407,59.367,3.485,110.778,4.187,155.891,2.352,45.106,1.835,96.51,1.134,155.884-2.352,221.123-12.993,321.777-144.407,321.777-144.407,359.806-379.812-46.941-898.98-192.255-971.637" transform="translate(170.852 38.774)" fill="#e9dfd6"/>
    </g>
    <g id="g408" transform="translate(20642.83 21863.813)">
      <path id="path410" d="M29.149,8.223c1.2,9.358,2.069,18.639-.723,27.778-3.06,10.01-16.754,9.288-24.809,8.877C-8.526,44.254-10.7,62.773.79,65.783c18.242,4.8,38.5-.276,48.195-17.413q-9.734-1.275-19.454-2.543c9,25.1,46.764,29.35,61.18,6.716,7.4-11.618-11.03-22.287-18.377-10.747-4.081,6.4-19.546,5.986-22.28-1.629C47.079,31.857,35.425,29.1,30.6,37.623c-4.973,8.792-15.1,10.01-24.158,7.637Q5.03,55.717,3.617,66.166c37.526,1.92,51.241-23.591,46.82-57.943C48.708-5.2,27.4-5.364,29.149,8.223" transform="translate(6.758 1.907)"/>
    </g>
    <g id="g412" transform="translate(20553.664 21811.904)">
      <path id="path414" d="M5.571,16.142c5.5,3.153,10.995,6.312,16.351,9.72,3.06,1.941,7.481,5.271,8.487,6.886a4.609,4.609,0,0,1,.177-4.343c.453-.914-1.056.836-2.522,1.736-6.617,4.038-14.537,6.093-21.891,8.31-13.106,3.96-7.516,24.5,5.66,20.53,12.589-3.8,41.3-10.712,39.332-29.166C49.423,13.556,28.644,4.828,16.318-2.242,4.388-9.085-6.331,9.313,5.571,16.142" transform="translate(1.292 3.742)"/>
    </g>
    <g id="g416" transform="translate(20772.408 21811.164)">
      <path id="path418" d="M27.4,1.4C15.725,8.861-5.28,18.794-6.315,34.818c-1.211,18.823,27.041,24.37,40.2,27.657,13.319,3.33,18.972-17.2,5.653-20.53-7.276-1.821-14.842-3.578-21.657-6.8a15.409,15.409,0,0,1-4.088-2.621c1.509,1.495,1.247,3.549.489,5.292,2.827-6.489,16.818-13.531,23.867-18.03C49.673,12.418,39-6.016,27.4,1.4" transform="translate(6.352 0.325)"/>
    </g>
    <g id="g420" transform="translate(20620.871 21622.143)">
      <path id="path422" d="M1.263,0c-3.393,50.823-4.406,117.607,31.7,117.607C73.53,113.094,77.25,54.734,69.081,3.124c-1.4,0-2.805.007-4.194.007C41.056,3.1,17.38,2.054,1.263,0" transform="translate(0.293)" fill="#6a6a6a"/>
    </g>
    <g id="g424" transform="translate(20732.492 21605.709)">
      <path id="path426" d="M0,14.671C21.324,111.868,84.034,86.2,45.156-3.4a65.638,65.638,0,0,1-8.289,11.25c-3.2,3.2-17.654,5.469-36.867,6.822" transform="translate(0 3.401)" fill="#6a6a6a"/>
    </g>
    <g id="g428" transform="translate(20069.508 22034.756)">
      <path id="path430" d="M0,143.125c88.228,19.687,200.848,10.124,247.689-19.687C396.595,26.071,179.467-16.379,49.576-33.183,26.325,22.649,8.622,82.087,0,143.125" transform="translate(0 33.183)" fill="#6a6a6a"/>
    </g>
    <g id="g432" transform="translate(20054.275 21456.619)">
      <path id="path434" d="M750.664,170.25c-9.167-7.694-11.073-40.14-13.616-51.206-7.042-30.668-14.509-61.237-25.057-90.913-10.442-29.35-36.846-85.239-77.517-62.151-45.821,25.992-66.118,88.235-90.5,131.79-17.9,31.979-80.117,21.14-111.9,20.339-15.529-.39-45.623,2.756-55.364-11.64-7.864-11.632-13.928-24.646-20.4-37.079C337.187,32.581,310.776-34.5,262.228-38.886c-43.214-3.9-61.57,73-69.844,101.816-7.594,26.417-13.234,53.359-19.524,80.1-5.292,22.507-7.474,25.3-25.95,37.313C108.625,205.24,75.74,238.848,45.475,272.7c-178.284,199.509-292.9,501.542-165.122,755.919,45.127,89.836,118.663,170,207.323,217.942,70.192,37.958,148.651,54.238,227.719,58.651,98.77,5.5,199.473,4.746,298.215-.758,117.713-6.56,241.859-51.1,322.861-139.944,91.126-99.96,148.736-215.619,154.028-352.3,5.412-139.979-45.991-278.357-116.509-397.105-52.481-88.384-121.638-180.268-208.959-237.056a187.793,187.793,0,0,0-16.521-9.472c-12.178-6.277-22.953,12.093-10.747,18.384C829.031,234,899.109,334.125,951.391,418.889c77.156,125.081,127.107,271.6,116.339,419.846-9.259,127.483-75.236,248.178-169.3,333.438-48,43.5-107.639,72.848-169.266,91.374-95.27,28.635-194.8,20.027-292.7,22.649-153.758,4.123-316.584-13.049-431.74-125.584C-92.634,1065.469-150.938,939.757-153.941,803.4c-3.245-146.872,56.3-290.521,135.219-411.663A861.04,861.04,0,0,1,95.965,250.36a471.271,471.271,0,0,1,50.738-44c10.938-8.1,29.017-14.14,36.69-25.383C202.422,153.113,218-45.283,274.646-13.135c36.789,20.87,56.476,81.278,75.639,116.636,5.32,9.8,12.433,25.872,24.321,29.372,30.4,8.919,64.807,7.134,96.1,6.843,20.467-.184,53.834,2.9,72.692-7.92,11.98-6.872,18.377-22.046,24.7-33.686C584.579,67.683,612.569-13.928,653.226-17.6c34.118-3.075,51.312,92.734,56.838,114.936,5.4,21.735,6.836,72.267,25.546,87.966,10.442,8.763,25.581-6.22,15.054-15.054" transform="translate(174.036 39.471)"/>
    </g>
    <g id="g436" transform="translate(19710.945 22119.439)">
      <path id="path438" d="M1542.241,429.887c15.734-14.806-.262-410.8-.262-529.554,0,0-657.128,184.6-959.735,279.746C279.616,84.937-349.791-99.666-349.791-99.666c0,118.755-17.3,516.249-.262,529.554C-156.807,580.8,596.094,850.866,596.094,850.866S1381.753,580.8,1542.241,429.887" transform="translate(357.558 99.666)" fill="#b7818d"/>
    </g>
    <g id="g440" transform="translate(19698.611 22107.467)">
      <path id="path442" d="M1559.111,446.463c12.412-15.607,9.125-45.531,9.713-64,1.622-51.227.63-102.581-.163-153.815-1.672-106.718-6.149-213.444-6.312-320.183a12.062,12.062,0,0,0-15.125-11.519q-303.333,85.225-605.8,173.5-105.68,30.881-211.141,62.484-44.865,13.474-89.645,27.239-20.233,6.216-40.43,12.525c-15.586,4.867-32.283-4.13-47.309-8.806-140.156-43.632-280.78-85.8-421.426-127.837q-234.654-70.135-469.67-139.108c-7.5-2.2-15.111,3.854-15.125,11.519-.2,121.34-5.979,242.652-7.446,363.979-.581,48.478-2.09,97.665,2.515,146,3.146,33.07,28.2,43.625,54.769,60.578,100.13,63.851,210.886,112.251,319.376,159.8,119.328,52.3,240.286,100.895,361.79,147.871q107.636,41.624,216.108,81.094c10.379,3.762,15.911,2.04,26.191-1.537q41.773-14.558,83.383-29.591c226.656-81.555,454.183-166.971,669.9-274.688,64.319-32.12,132.576-66.281,185.843-115.51,11.342-10.478-5.6-27.331-16.9-16.9-72.395,66.9-172,108.872-260.25,149.869C1161.164,635.544,1037.4,685.3,913.148,733.18Q778.1,785.208,641.592,833.4q-14.866,5.249-29.74,10.435c-8.955,3.117-11.895.864-4.47,3.535q-25.759-9.256-51.411-18.773c-224.85-82.851-449.2-170.045-665.658-273.087-51.723-24.625-102.928-50.54-152.462-79.352-18.766-10.91-37.15-22.464-54.981-34.841-15.111-10.478-16.372-12.008-17.859-30.038-9.784-118.322-.205-239.847,2.791-358.318,1.219-48.152,2.7-96.326,2.777-144.492q-7.566,5.76-15.125,11.519Q-33.6,11.192,276.706,104.574q105.266,31.71,210.376,63.964,43.6,13.411,87.144,27.027c26.743,8.367,53.713-6.5,79.819-14.523,138.6-42.591,277.84-83.113,417.125-123.423q240.935-69.731,482.407-137.634-7.566-5.76-15.125-11.519c.149,95.716,3.9,191.454,5.731,287.149.964,50.561,1.722,101.143,1.36,151.718-.135,18.193-.5,36.392-1.381,54.563-.312,6.362-.8,12.709-1.424,19.043-.319,3.245-3.9,12.872-.524,8.629-9.486,11.93,7.3,28.954,16.9,16.9" transform="translate(361.469 103.51)"/>
    </g>
    <g id="g444" transform="translate(20637.008 22392.9)">
      <path id="path446" d="M0,9.381C.248,115.7,7.12,221.855,6.843,328.169c-.3,114.858-1.289,229.49,5.03,344.249.843,15.316,24.738,15.4,23.9,0-6.319-114.709-5.958-229.426-5.037-344.249.857-106.3-6.588-212.487-6.836-318.788C23.86-6.027-.035-6.027,0,9.381" transform="translate(0 2.175)"/>
    </g>
    <g id="g448" transform="translate(19526.227 22113.102)">
      <path id="path450" d="M144.62,3.209l3.96-3.953C95.136,70.517,31.788,151.668-33.529,205.119c83.56,29.244,345.517,138.6,597.7,222.058,299.6,99.131,315.748,112.988,358.977,55.909,113.264-149.55,130.422-142.5,166.05-200.394C911.053,241.122,287.143,26.97,144.62,3.209" transform="translate(33.529 0.744)" fill="#b7818d"/>
    </g>
    <g id="g452" transform="translate(19514.127 22101.426)">
      <path id="path454" d="M161.3,19.544c1.318-1.318,2.642-2.635,3.96-3.953L146.493,1.118C92.093,73.5,36,146.141-33.746,204.558c-7.424,6.22-2.437,17.243,5.271,19.971C249.053,322.583,518.987,440.771,802.346,522.68c47.16,13.63,96.687,26.24,131.811-16.018,38.312-46.091,73.209-94.292,114.305-138.095,21.536-22.953,42.527-45.141,59.289-71.963,4-6.4.255-15.805-7.141-17.548-164.186-38.751-324.88-95.816-485.652-146.419-91.919-28.932-183.874-57.815-276.268-85.21C278.645,29.618,217.875,10.221,156.029-.42,140.961-3.02,134.514,20,149.674,22.619c61.86,10.641,122.594,30.1,182.669,47.84,92.415,27.31,184.341,56.292,276.26,85.217C769.383,206.266,930.07,263.344,1094.256,302.1l-7.134-17.548c-15.663,25.071-35.351,45.744-55.555,67.124-39.679,42-75.533,87.336-110.5,133.277-35.365,46.459-90.049,21.742-137.748,7.12C631.069,445.39,480.194,392.463,331.012,336.844,212.945,292.822,96.684,243.465-22.121,201.491l5.271,19.964C54.461,161.726,111.5,87.178,167.123,13.175c8.338-11.087-9.422-23.8-18.759-14.473C147.046.02,145.721,1.33,144.4,2.648c-10.91,10.9,5.979,27.792,16.9,16.9" transform="translate(37.396 4.531)"/>
    </g>
    <g id="g456" transform="translate(20658.346 22111.115)">
      <path id="path458" d="M766.815,3.221,762.848-.747c53.444,71.268,116.778,152.419,182.11,205.864-83.56,29.244-345.524,138.612-597.7,222.058C47.65,526.306,31.5,540.163-11.724,483.085-124.974,333.534-142.14,340.59-177.781,282.69.383,241.119,624.293,26.974,766.815,3.221" transform="translate(177.781 0.747)" fill="#b7818d"/>
    </g>
    <g id="g460" transform="translate(20646.404 22099.434)">
      <path id="path462" d="M783.368,5.847,779.4,1.879c-9.33-9.33-27.1,3.393-18.759,14.48,55.626,74,112.648,148.558,183.973,208.279l5.271-19.971c-114.879,40.593-227.4,88.143-341.45,130.989Q382.281,420.616,151.4,493.085C104.7,507.807,45.018,535.854,8.64,490.634c-35.8-44.5-69.8-89.985-108.766-131.868-21.267-22.861-42.591-44.4-59.232-71.035L-166.5,305.28c164.193-38.751,324.887-95.808,485.666-146.412,91.919-28.932,183.867-57.822,276.26-85.21C655.474,55.855,716.251,36.451,778.1,25.81c15.16-2.607,8.714-25.624-6.355-23.038C709.889,13.413,649.155,32.866,589.08,50.612c-92.422,27.3-184.348,56.292-276.268,85.217C152.026,186.412-8.653,243.49-172.854,282.242c-7.4,1.743-11.137,11.151-7.134,17.548,15.819,25.319,35.308,46.686,55.789,68.25C-82.422,412.034-45.605,459.8-8.257,507.53c33.665,43.023,80.634,32.892,127.908,19.957,286.2-78.31,557.515-201.174,836.581-299.78,7.708-2.72,12.7-13.744,5.278-19.964C891.751,149.333,835.678,76.683,781.271,4.3L762.511,18.775l3.96,3.967c10.9,10.9,27.8-5.993,16.9-16.9" transform="translate(181.618 1.355)"/>
    </g>
    <g id="g464" transform="translate(20104.041 21880.146)">
      <path id="path466" d="M13.007,80.563C110.382,27.431,218.545,13.978,327.226,2.678c13.517-1.4,13.652-22.705,0-21.288C214.826-6.928,102.957,7.233,2.26,62.179-9.79,68.754.95,87.144,13.007,80.563" transform="translate(3.016 18.678)"/>
    </g>
    <g id="g468" transform="translate(20107.154 21926.033)">
      <path id="path470" d="M16.193,191.193C80.264,82.951,208.745.936,330.943-23.555c13.46-2.7,7.743-23.215-5.66-20.53C197.8-18.532,64.565,67.67-2.191,180.446-9.2,192.291,9.208,203,16.193,191.193" transform="translate(3.754 44.327)"/>
    </g>
    <g id="g472" transform="translate(20967.691 21813.383)">
      <path id="path474" d="M277.7,18.53C168.732-14.179,57.366-5.422-54.2,6.132c-13.51,1.4-13.652,22.7,0,21.281C55.453,16.064,164.821,6.876,272.042,39.053c13.184,3.96,18.773-16.584,5.66-20.523" transform="translate(64.384 4.296)"/>
    </g>
    <g id="g476" transform="translate(20972.316 21869.443)">
      <path id="path478" d="M335.117,90.962C213.408,26.246,71.878-22.692-67.4-21.049-81.116-20.886-81.137.4-67.4.24c135.346-1.6,273.533,46.232,391.77,109.106,12.114,6.44,22.868-11.937,10.747-18.384" transform="translate(77.695 21.089)"/>
    </g>
  </g>
</svg>
